<svg width="168" height="36" fill="none" xmlns="http://www.w3.org/2000/svg"><path d="M0 2h17.223C24.325 2 29 5.986 29 12.375c0 6.389-4.557 10.257-11.777 10.257H5.149V35H0V2zm23.792 10.316c0-3.927-2.25-5.744-6.866-5.744H5.09V18.06h11.837c4.616 0 6.865-1.934 6.865-5.744zM31 10.403h4.466v2.362h.114C37.183 11.037 39.473 10 42.107 10c1.202 0 2.462.173 3.893.576l-1.03 4.435c-1.49-.345-2.233-.518-3.436-.518-3.55 0-5.782 2.477-5.782 7.028V35H31V10.403zm18-3.366V2h5v5.037h-5zm.275 27.905V10.28h4.56V35h-4.56v-.058zM58 10.74h4.598v2.677h.115C64.609 11.253 67.885 10 71.276 10 78.287 10 83 14.328 83 20.592V35h-4.77V21.39c0-4.442-2.874-7.176-7.356-7.176-2.414 0-4.368.684-5.862 2.05-1.495 1.31-2.242 3.075-2.242 5.24V35H58V10.74zm37.171 3.319v14.294c0 1.706.572 2.235 2.629 2.235h4.057V35h-4.286c-5.085 0-7.142-1.941-7.142-6.53V14.06H85V9.882h5.429V4h4.742v5.882H103v4.177h-7.829zm37.637-2.592C131.15 9.897 128.899 9 126.53 9c-2.37 0-4.621.897-6.279 2.467-1.007.954-1.777 2.187-2.251 3.533h17a8.248 8.248 0 00-2.192-3.533z" fill="#000"/><path d="M108 0v36h60V0h-60zm32.738 23.035c-1.981 4.63-6.583 7.64-11.709 7.64-6.641 0-12.116-4.92-12.699-11.517h-3.087c-.059-.406-.059-.81-.059-1.158 0-7.003 5.709-12.675 12.758-12.675 7.048 0 12.757 5.672 12.757 12.675 0 .405-.058.81-.058 1.158H120.35c.233 1.91 1.106 3.588 2.446 4.977a8.758 8.758 0 0012.35 0 7.562 7.562 0 001.281-1.678l.058-.116 4.253.347v.347zm17.767 6.83l-5.359-11.633h-2.214l-5.359 11.633h-4.253l5.418-11.633h-2.272l-5.592-12.155h4.252l5.359 11.634h2.214l5.359-11.634h4.253l-5.418 11.634h2.272l5.592 12.154h-4.252z" fill="#000"/></svg>