<svg width="64" height="64" viewBox="0 0 64 64" fill="none" xmlns="http://www.w3.org/2000/svg">
<path d="M0 10C0 4.47715 4.47715 0 10 0L54 0C59.5228 0 64 4.47715 64 10V54C64 59.5228 59.5228 64 54 64H12C5.37258 64 0 58.6274 0 52L0 10Z" fill="black"/>
<path d="M14 11H34.7857C43.3571 11 49 16.0728 49 24.2043C49 32.3357 43.5 37.2593 34.7857 37.2593H20.2143V53H14V11ZM42.7143 24.1297C42.7143 19.1314 40 16.8188 34.4286 16.8188H20.1429V31.4405H34.4286C40 31.4405 42.7143 28.9787 42.7143 24.1297Z" fill="white"/>
</svg>
