<svg width="123" height="79" viewBox="0 0 123 79" fill="none" xmlns="http://www.w3.org/2000/svg">
<path d="M63.0002 57.5002L98.5574 50.3191L73.0002 57.5002L50.9582 77.7985L16.0004 57.6171L63.0002 57.5002Z" fill="#E5D795"/>
<rect width="40.3651" height="27.2353" transform="matrix(0.866041 0.499972 -0.866041 0.499972 87.5869 17)" fill="#E5D795"/>
<path d="M50 78L1 50L13 29L63 57L50 78Z" fill="white"/>
<path d="M50 78L1 50L13 29L63 57L50 78Z" stroke="black" stroke-linejoin="bevel"/>
<path d="M50.9884 22L17 28.4L62.9302 54L96 47.6L50.9884 22Z" fill="white"/>
<path d="M99 50L50 22L62 1L112 29L99 50Z" fill="white"/>
<path d="M99 50L50 22L62 1L112 29L99 50Z" stroke="black" stroke-linejoin="bevel"/>
<path d="M96.5968 47.5716L107.5 30.0002L63.0645 5.42871L53 23.0001" stroke="black" stroke-linejoin="bevel"/>
<path d="M50 22L13 29L63 57L99 50L50 22Z" stroke="black" stroke-linejoin="bevel"/>
<path d="M48.9997 25.8916L61 32.3913L37.0628 37.0253L25 30.3912L48.9997 25.8916Z" fill="#FFEFA6" stroke="black" stroke-linejoin="bevel"/>
<path d="M64.9997 34.8916L77 41.3913L53.0628 46.0253L41 39.3912L64.9997 34.8916Z" stroke="black" stroke-linejoin="bevel"/>
<path d="M61 23.4804L61.8063 22.5574C62.5938 21.6559 63.1274 20.5613 63.3525 19.3858C63.5833 18.1809 64.138 17.0616 64.957 16.1483L65.4817 15.5632C65.9324 15.0606 66.3287 14.5119 66.664 13.926L67.731 12.062" stroke="black" stroke-linejoin="bevel"/>
<path d="M64 25.4804L64.8063 24.5574C65.5938 23.6559 66.1274 22.5613 66.3525 21.3858C66.5833 20.1809 67.138 19.0616 67.957 18.1483L68.4817 17.5632C68.9324 17.0606 69.3287 16.5119 69.664 15.926L70.731 14.062" stroke="black" stroke-linejoin="bevel"/>
<path d="M93 42.4804L93.8063 41.5574C94.5938 40.6559 95.1274 39.5613 95.3525 38.3858C95.5833 37.1809 96.138 36.0616 96.957 35.1483L97.4817 34.5632C97.9324 34.0606 98.3287 33.5119 98.664 32.926L99.731 31.062" stroke="black" stroke-linejoin="bevel"/>
</svg>
