<svg width="146" height="73" viewBox="0 0 146 73" fill="none" xmlns="http://www.w3.org/2000/svg">
<path d="M113.292 20.0884L145 39L128.5 40.5V32L98.1319 14.7992L113.292 20.0884Z" fill="#A0D9BC"/>
<path d="M134.5 34.9998L145.5 38.9998L86.84 72.9573L72.1596 70.7914L134.5 34.9998Z" fill="#A0D9BC"/>
<path d="M72.2918 6.02058L102.423 23.4153L90.9996 20.4321L57.1319 0.731298L72.2918 6.02058Z" fill="#A0D9BC"/>
<path d="M90.4998 19.4319L102.504 23.3266L46.1306 55.8716L31.4502 53.7057L90.4998 19.4319Z" fill="#A0D9BC"/>
<rect width="31.6221" height="60.7426" transform="matrix(0.866041 0.499972 -0.866041 0.499972 54.2197 2.75293)" fill="#B1F1D0"/>
<path d="M57.3738 0.932129L87.5046 18.3269L31.1308 50.8719L1 33.4771L57.3738 0.932129Z" stroke="black" stroke-linejoin="bevel"/>
<path d="M11 32.9321L33.2228 45.7615" stroke="black" stroke-linejoin="bevel"/>
<path d="M14 30.9321L36.2228 43.7615" stroke="black" stroke-linejoin="bevel"/>
<path d="M87.5046 21.3267L31.1308 53.8717L1 36.4769" stroke="black" stroke-linejoin="bevel"/>
<rect width="31.9142" height="61.8733" transform="matrix(0.866041 0.499972 -0.866041 0.499972 96.1992 16.2554)" fill="#B1F1D0"/>
<path d="M98.3738 15L128.505 32.3947L72.1308 64.9398L42 47.545L98.3738 15Z" stroke="black" stroke-linejoin="bevel"/>
<path d="M110.223 37.8302L120.617 31.8294L98.3945 19L88 25.0008" stroke="black" stroke-linejoin="bevel"/>
<path d="M52 47L74.2228 59.8294" stroke="black" stroke-linejoin="bevel"/>
<path d="M55 45L77.2228 57.8294" stroke="black" stroke-linejoin="bevel"/>
<path d="M91.1452 28.7559L104.677 36.568L79.3592 51.1843L65.8271 43.3722L91.1452 28.7559Z" fill="white" stroke="black" stroke-linejoin="bevel"/>
<path d="M128.505 35.3945L72.1308 67.9395L42 50.5448" stroke="black" stroke-linejoin="bevel"/>
<path d="M128.505 38.4126L72.1308 70.9576L42 53.5629" stroke="black" stroke-linejoin="bevel"/>
<path d="M58.6317 25.9497C54.1407 28.6834 46.8593 28.6834 42.3683 25.9497C37.8772 23.2161 37.8772 18.7839 42.3683 16.0503C46.8593 13.3166 54.1407 13.3166 58.6317 16.0503C63.1228 18.7839 63.1228 23.2161 58.6317 25.9497Z" stroke="black" stroke-linejoin="bevel"/>
</svg>
