<svg width="98" height="69" fill="none" xmlns="http://www.w3.org/2000/svg"><g clip-path="url(#clip0)"><path d="M78.242 45.477l19.623-3.682-45.886 26.489-12.943-.173 39.206-22.634z" fill="#C4C4C4"/><path d="M63.416 21.656l34.448 20.14-19.609 4.769-.53-9.54-14.84-7.552.531-7.817z" fill="#C4C4C4"/><path d="M65.536 30.136l12.386 7.022L39.135 59.55.35 37.158 3 35.502m-.795 4.833L.35 41.525l38.786 22.392 38.787-22.392-1.953-1.19M2.204 44.54L.349 45.73l38.786 22.39 38.787-22.392-1.953-1.19" stroke="#000" stroke-linejoin="bevel"/><path d="M31.618 5.227L62.81 22.716c1.737 9.796-3.704 19.565-15.007 26.94l-8.667 5.655L3.463 34.716c16.274-5.87 26.65-15.906 27.875-26.961l.28-2.528z" fill="#F2F2F2"/><path d="M39.133 54.732L1.483 32.996c17.161-7.118 27.553-18.658 27.553-31.13V.753L62.472 18.23c3.753 11.957-2.718 24.342-17.732 33.195l-5.607 3.307z" stroke="#000" stroke-linejoin="bevel"/><path d="M53.347 20.596l-19.97-11.13c-.708 3.544-2.2 6.995-4.41 10.275" stroke="#000" stroke-linejoin="bevel"/></g><defs><clipPath id="clip0"><path fill="#fff" transform="translate(-5 -12)" d="M0 0h112v98H0z"/></clipPath></defs></svg>