<svg width="98" height="69" viewBox="0 0 98 69" fill="none" xmlns="http://www.w3.org/2000/svg">
<g clip-path="url(#clip0)">
<path d="M78.2415 45.4775L97.8645 41.7953L51.9791 68.2838L39.0361 68.1111L78.2415 45.4775Z" fill="#C4C4C4"/>
<path d="M63.416 21.6563L97.8644 41.7952L78.2551 46.565L77.7251 37.0255L62.8858 29.4733L63.416 21.6563Z" fill="#C4C4C4"/>
<path d="M65.5357 30.1357L77.9222 37.1584L39.1354 59.5503L0.348682 37.1584L2.99855 35.5019M2.20358 40.335L0.348633 41.5248L39.1354 63.9167L77.9221 41.5248L75.9687 40.3351M2.20358 44.5386L0.348633 45.7283L39.1354 68.1202L77.9221 45.7283L75.9687 44.5387" stroke="black" stroke-linejoin="bevel"/>
<path d="M31.6177 5.22679L62.8095 22.716C64.5475 32.512 59.1057 42.281 47.8027 49.656L39.1364 55.3106L3.46311 34.7161C19.7367 28.8467 30.1137 18.8097 31.3378 7.75462L31.6177 5.22679Z" fill="#F2F2F2"/>
<path d="M39.1327 54.7317L1.48347 32.9965C18.6443 25.8782 29.0359 14.3383 29.0359 1.86639L29.0359 0.752787L62.4717 18.23C66.2249 30.1872 59.7544 42.5716 44.7399 51.4252L39.1327 54.7317Z" stroke="black" stroke-linejoin="bevel"/>
<path d="M53.3466 20.5963L33.3765 9.4668C32.6692 13.0102 31.1777 16.4608 28.9678 19.7405" stroke="black" stroke-linejoin="bevel"/>
</g>
<defs>
<clipPath id="clip0">
<rect width="112" height="98" fill="white" transform="translate(-5 -12)"/>
</clipPath>
</defs>
</svg>
