<svg width="98" height="74" fill="none" xmlns="http://www.w3.org/2000/svg"><g clip-path="url(#clip0)"><path d="M3.22 45.756v3.302m40.73 20.365v3.303" stroke="#000"/><path d="M42.307 23.537L97.614 48.38l-64.037 7.94-18.523-17.995 27.253-14.789z" fill="#A0D9BC"/><path d="M85.23 45.756v3.302" stroke="#000"/><path d="M85.2 49.055L44.21 72.718 3.22 49.055" stroke="#000" stroke-linejoin="bevel"/><path d="M84.932 49.437l12.682-1.056L54.699 73.6l-10.538-.627 40.77-23.537z" fill="#A0D9BC"/><path d="M73.712 39.395l11.487 6.357-40.99 23.664L3.22 45.752l16.918-9.766" stroke="#000" stroke-linejoin="bevel"/><path d="M1.612 12.974L.73 16.156m33.817 30.497l-.881 3.183M80.647 34.86l-.881 3.184" stroke="#000"/><path d="M79.737 38.032L33.92 49.898.73 16.153" stroke="#000" stroke-linejoin="bevel"/><path fill="#B1F1D0" d="M46.664 4.724l30.391 30.901L34.52 46.641 4.13 15.739z"/><path d="M47.432 1.104L80.619 34.85 34.801 46.715 1.613 12.97 47.432 1.104z" stroke="#000" stroke-linejoin="bevel"/><path d="M71.436 31.055l-25.055-9.573.35 10.448-10.572-2.85-3.303 12.246 38.58-10.27z" fill="#fff"/><path d="M71.098 30.434L46.043 20.86l.35 10.448-10.572-2.85-3.302 12.247" stroke="#000"/><circle transform="matrix(.96634 -.25726 .70601 .7082 22.747 19.583)" fill="#fff" r="6.061"/></g><defs><clipPath id="clip0"><path fill="#fff" transform="translate(0 -15)" d="M0 0h98v98H0z"/></clipPath></defs></svg>