<svg width="83" height="95" fill="none" xmlns="http://www.w3.org/2000/svg"><path fill="#E5D795" d="M4.978 74.629l42.89-24.761L71.674 63.61l-42.89 24.761z"/><path d="M1.128 67.775l29.263-16.893 23.805 13.743-29.262 16.894-15.78-7.808-8.026-5.936z" fill="#E5D795"/><path d="M40 94.5L82.5 70 63.18 59.418a3.558 3.558 0 01-.14-.08c-.472-.287-3.2-2.053-3.2-4.517l.001-48.787c0-5.078-2.894-5.218-4.341-4.652l-43 24.5 1.5.5c2.8.4 3.833 3.831 4 5.497v42.935c0 2.622.709 4.719 1.438 6.182.845 1.699 2.393 2.872 4.031 3.83L40 94.5z" fill="#FFEFA6"/><path d="M18 31.88v42.934c0 2.622.709 4.72 1.438 6.183.845 1.698 2.393 2.871 4.031 3.83L40 94.5 82.5 70 63.18 59.418a3.437 3.437 0 01-.14-.08c-.472-.287-3.2-2.053-3.2-4.517l.001-48.787M13 74.935V32m-1-5.966l43-24.5" stroke="#000" stroke-linejoin="bevel"/><path d="M18 31.823c0 1.975-1.567 2.776-3.5 1.788-1.933-.988-3.5-3.39-3.5-5.365 0-1.976 1.567-2.776 3.5-1.789 1.933.988 3.5 3.39 3.5 5.366z" stroke="#000" stroke-linejoin="bevel"/><path d="M8 72.67c0 1.976-1.567 2.776-3.5 1.789-1.933-.988-3.5-3.39-3.5-5.366 0-1.975 1.567-2.776 3.5-1.788 1.933.988 3.5 3.39 3.5 5.365z" fill="#E5D795"/><path d="M16 30.928c0 .988-.671 1.388-1.5.895-.828-.494-1.5-1.695-1.5-2.683 0-.988.671-1.388 1.5-.894.828.494 1.5 1.695 1.5 2.683zM60 6.534c0-2.09-.523-4.002-2-5-.996-.672-2-.75-3 0" stroke="#000" stroke-linejoin="bevel"/><path d="M55.877 48.195L45.411 33.882l-6.745 17.013-4.199-2.424L24 66.601l31.877-18.406z" fill="#fff"/><path d="M55.877 48.195L45.411 33.882l-6.745 17.013-4.199-2.424L24 66.601" stroke="#000"/><circle r="4.415" transform="matrix(.86601 -.50003 -.00003 1 29.89 44.16)" fill="#fff"/><path d="M29.991 48.659c-2.112 1.22-3.824.234-3.824-2.2 0-2.436 1.712-5.399 3.825-6.618" stroke="#000"/></svg>