<svg width="123" height="79" fill="none" xmlns="http://www.w3.org/2000/svg"><path d="M63 57.5l35.557-7.18L73 57.5 50.958 77.8 16 57.617l47-.117z" fill="#E5D795"/><path fill="#E5D795" d="M87.587 17l34.958 20.181-23.587 13.617L64 30.617z"/><path d="M50 78L1 50l12-21 50 28-13 21z" fill="#fff"/><path d="M50 78L1 50l12-21 50 28-13 21z" stroke="#000" stroke-linejoin="bevel"/><path d="M50.988 22L17 28.4 62.93 54 96 47.6 50.988 22z" fill="#fff"/><path d="M99 50L50 22 62 1l50 28-13 21z" fill="#fff"/><path d="M99 50L50 22 62 1l50 28-13 21z" stroke="#000" stroke-linejoin="bevel"/><path d="M96.597 47.572L107.5 30 63.065 5.43 53 23m-3-1l-37 7 50 28 36-7-49-28z" stroke="#000" stroke-linejoin="bevel"/><path d="M49 25.892l12 6.5-23.937 4.633L25 30.391l24-4.5z" fill="#FFEFA6" stroke="#000" stroke-linejoin="bevel"/><path d="M65 34.892l12 6.5-23.937 4.633L41 39.391l24-4.5zM61 23.48l.806-.923a6.75 6.75 0 001.547-3.171 6.752 6.752 0 011.604-3.238l.525-.585a9.578 9.578 0 001.182-1.637l1.067-1.864M64 25.48l.806-.923a6.75 6.75 0 001.547-3.171 6.752 6.752 0 011.604-3.238l.525-.585a9.578 9.578 0 001.182-1.637l1.067-1.864M93 42.48l.806-.923a6.75 6.75 0 001.547-3.171 6.752 6.752 0 011.604-3.238l.525-.585a9.578 9.578 0 001.182-1.637l1.067-1.864" stroke="#000" stroke-linejoin="bevel"/></svg>