<svg width="146" height="73" fill="none" xmlns="http://www.w3.org/2000/svg"><path d="M113.292 20.088L145 39l-16.5 1.5V32L98.132 14.8l15.16 5.288z" fill="#A0D9BC"/><path d="M134.5 35l11 4-58.66 33.957-14.68-2.166L134.5 35zM72.292 6.02l30.131 17.395L91 20.432 57.132.732l15.16 5.289z" fill="#A0D9BC"/><path d="M90.5 19.432l12.004 3.895-56.373 32.545-14.68-2.166L90.5 19.432z" fill="#A0D9BC"/><path fill="#B1F1D0" d="M54.22 2.753l27.386 15.81L29 48.933 1.614 33.123z"/><path d="M57.374.932l30.13 17.395-56.373 32.545L1 33.477 57.374.932zM11 32.932l22.223 12.83M14 30.932l22.223 12.83" stroke="#000" stroke-linejoin="bevel"/><path d="M87.505 21.327L31.13 53.872 1 36.477" stroke="#000" stroke-linejoin="bevel"/><path fill="#B1F1D0" d="M96.2 16.255l27.638 15.957-53.585 30.934L42.615 47.19z"/><path d="M98.374 15l30.131 17.395L72.131 64.94 42 47.545 98.374 15z" stroke="#000" stroke-linejoin="bevel"/><path d="M110.223 37.83l10.394-6L98.394 19 88 25M52 47l22.223 12.83M55 45l22.223 12.83" stroke="#000" stroke-linejoin="bevel"/><path d="M91.145 28.756l13.532 7.812-25.318 14.616-13.532-7.812 25.318-14.616z" fill="#fff" stroke="#000" stroke-linejoin="bevel"/><path d="M128.505 35.395L72.131 67.939 42 50.545" stroke="#000" stroke-linejoin="bevel"/><path d="M128.505 38.413L72.131 70.958 42 53.563M58.632 25.95c-4.491 2.733-11.773 2.733-16.264 0-4.49-2.734-4.49-7.166 0-9.9 4.491-2.733 11.773-2.733 16.264 0 4.49 2.734 4.49 7.166 0 9.9z" stroke="#000" stroke-linejoin="bevel"/></svg>