<svg width="84" height="84" fill="none" xmlns="http://www.w3.org/2000/svg"><path fill="#FFE1D3" d="M6.382 41.713L61 10.176v39.28L6.381 80.993z"/><path d="M6.88 80.126l.002-40.996 57.61-33.264v40.996L6.88 80.126z" stroke="#000" stroke-linejoin="bevel"/><path d="M62.612 3L4.002 36.841 4 78.992" stroke="#000" stroke-linejoin="bevel"/><path d="M59.612 1L1.002 34.841 1 76.992" stroke="#000" stroke-linejoin="bevel"/><path d="M38.77 46.92L7.89 38.674 63.74 6.427 38.77 46.92z" fill="#FFE1D3" stroke="#000" stroke-linejoin="bevel"/><path d="M24.5 52.5L6.593 80.63 64.5 47l-10-3" stroke="#000" stroke-linejoin="bevel"/><path d="M65.885 46.845L83 49.345 24.115 83.34 7 80.84l58.885-33.995z" fill="#E5CABE"/><path d="M39.3 40.645l.38.582.38-1.02c.236-.637.632-1.535 1.213-2.391.6-.882 1.271-1.536 2.007-1.96 2.054-1.187 3.646-.172 3.646 2.504 0 1.42-.487 2.917-1.408 4.732-.932 1.837-2.274 3.934-3.94 6.535h0c-.563.88-1.203 1.878-1.868 2.933h0a.093.093 0 01-.03.032c-.013.007-.023.008-.031.004h0c-.665-.287-1.304-.547-1.866-.776h-.002 0c-1.666-.678-3.008-1.226-3.94-1.986-.92-.752-1.408-1.686-1.408-3.106 0-2.676 1.593-5.53 3.647-6.715.735-.425 1.407-.546 2.006-.357l.265-.548-.265.548c.582.184.977.626 1.214.99z" fill="#FFE1D3" stroke="#000"/><path d="M41.3 41.645l.38.582.38-1.02c.236-.637.632-1.535 1.213-2.391.6-.882 1.271-1.536 2.007-1.96 2.054-1.187 3.646-.172 3.646 2.504 0 1.42-.487 2.917-1.408 4.732-.932 1.837-2.274 3.934-3.94 6.535h0c-.563.88-1.203 1.878-1.868 2.933h0a.093.093 0 01-.03.032c-.013.007-.023.008-.031.004h0c-.665-.287-1.304-.547-1.866-.776h-.002 0c-1.666-.678-3.008-1.226-3.94-1.986-.92-.752-1.408-1.686-1.408-3.106 0-2.676 1.593-5.53 3.647-6.715.735-.425 1.407-.546 2.006-.357l.265-.548-.265.548c.582.184.977.626 1.214.99z" fill="#fff" stroke="#000"/></svg>