<svg width="94" height="87" fill="none" xmlns="http://www.w3.org/2000/svg"><g clip-path="url(#clip0)"><path d="M76.362 48.431l14.49 2.594L37.928 81.9l-14.49-2.594L76.363 48.43zM15.985 60.982v.837l.414.418 2.484 7.95-4.632-1.027-9.858-1.567 11.592-6.61z" fill="#D7C7ED"/><path d="M65.08 4.896l-53.66 31.31-6.2 31.035 10.731-6.259" stroke="#000" stroke-linecap="round" stroke-linejoin="bevel"/><path d="M24.231 79.39l-3.407-1.008-5.701-20.747L10.476 41.2" stroke="#000" stroke-linecap="round" stroke-linejoin="bevel"/><path d="M14.71 34.999L64.745 5.806 76.3 46.674 26.267 75.867 14.71 34.999z" fill="#E5D4FC"/><path d="M11.854 35.931l53.662-31.31 12.392 43.832-53.66 31.31L11.853 35.93z" stroke="#000" stroke-linejoin="bevel"/><path d="M22.086 36.023c.3 1.21-.175 2.893-1.062 3.76-.887.868-1.848.59-2.148-.62-.3-1.209.176-2.892 1.062-3.76.887-.866 1.848-.589 2.148.62zm6.98-3.852c.3 1.21-.176 2.893-1.063 3.76-.886.868-1.848.59-2.148-.62-.3-1.209.176-2.892 1.063-3.76.886-.867 1.848-.59 2.148.62zm6.814-3.86c.299 1.21-.177 2.893-1.063 3.76-.886.868-1.848.59-2.148-.62-.3-1.209.175-2.892 1.062-3.76.886-.867 1.848-.59 2.148.62zm6.814-3.86c.3 1.21-.176 2.893-1.063 3.76-.886.868-1.848.59-2.148-.62-.3-1.209.176-2.892 1.063-3.76.886-.866 1.848-.589 2.148.62zm6.813-3.86c.3 1.21-.176 2.893-1.062 3.76-.887.868-1.848.59-2.148-.62-.3-1.209.175-2.892 1.062-3.76.886-.867 1.848-.59 2.148.62zm6.815-3.86c.3 1.21-.176 2.893-1.063 3.76-.886.868-1.848.59-2.148-.62-.3-1.209.176-2.892 1.062-3.76.887-.867 1.849-.59 2.148.62zm6.799-3.567c.3 1.21-.175 2.893-1.062 3.76-.886.868-1.848.59-2.148-.62-.3-1.209.176-2.892 1.062-3.76.887-.867 1.848-.59 2.148.62z" fill="#D7C7ED"/><path d="M15.308 34.38c-.612-1.224-.979-2.55-.979-3.76 0-2.776 1.928-3.9 4.306-2.513 2.378 1.388 4.306 4.762 4.306 7.537 0 2.164-1.172 3.325-2.816 3.073m1.807-8.521c-.612-1.224-.979-2.55-.979-3.76 0-2.776 1.928-3.9 4.306-2.513 2.378 1.388 4.306 4.762 4.306 7.538 0 2.164-1.172 3.324-2.816 3.072m1.807-8.52c-.612-1.225-.979-2.55-.979-3.761 0-2.775 1.928-3.9 4.306-2.513 2.378 1.388 4.306 4.763 4.306 7.538 0 2.164-1.172 3.324-2.816 3.072m1.807-8.52c-.611-1.224-.979-2.55-.979-3.761 0-2.775 1.928-3.9 4.306-2.512 2.378 1.387 4.306 4.762 4.306 7.537 0 2.164-1.172 3.325-2.816 3.073m2.635-7.684c-.611-1.224-.979-2.55-.979-3.761 0-2.775 1.928-3.9 4.306-2.512 2.378 1.387 4.306 4.762 4.307 7.537 0 2.164-1.173 3.325-2.817 3.073m1.807-8.521c-.611-1.224-.979-2.55-.979-3.76 0-2.776 1.928-3.9 4.306-2.513 2.379 1.388 4.306 4.762 4.307 7.537 0 2.164-1.173 3.325-2.817 3.073m1.808-8.521c-.611-1.224-.979-2.55-.979-3.76 0-2.776 1.928-3.9 4.306-2.513 2.379 1.388 4.306 4.763 4.307 7.538 0 2.164-1.173 3.324-2.817 3.072M23.693 50.503l-1.344-4.828 3.98-2.322 1.343 4.829-3.979 2.321zm7.452-4.183l-1.344-4.83 3.98-2.32 1.343 4.828-3.979 2.322zm7.452-4.184l-1.344-4.829 3.98-2.322 1.344 4.83-3.98 2.32zm7.453-4.184l-1.344-4.829 3.979-2.321 1.344 4.828-3.98 2.322zm7.453-4.183l-1.344-4.83 3.979-2.321 1.344 4.829-3.98 2.322zm7.452-4.184l-1.344-4.83 3.979-2.32 1.344 4.828-3.98 2.322z" stroke="#000"/><path d="M24.266 53.873l4.875-2.844 1.583 5.689-4.875 2.844-1.583-5.689zm7.452-4.183l4.875-2.845 1.584 5.689-4.876 2.845-1.583-5.69zm7.452-4.184l4.875-2.845 1.584 5.69-4.876 2.844-1.583-5.69zm7.452-4.184l4.876-2.845 1.583 5.69-4.876 2.844-1.583-5.689zm7.453-4.184l4.876-2.844 1.583 5.689-4.876 2.845-1.583-5.69zm7.452-4.183l4.876-2.845 1.583 5.69-4.875 2.844-1.584-5.69z" fill="#fff"/></g><defs><clipPath id="clip0"><path fill="#fff" d="M0 0h94v87H0z"/></clipPath></defs></svg>