<svg width="142" height="87" fill="none" xmlns="http://www.w3.org/2000/svg"><path d="M91.009 59.434l30.401-6.18-21.851 6.18-18.846 17.468-29.888-17.367 40.184-.1z" fill="#E5D795"/><path fill="#E5D795" d="M112.03 24.58l29.888 17.369-20.166 11.718-29.889-17.368z"/><path d="M79.894 77.076L38 52.98l10.26-18.072 42.749 24.096-11.115 18.072z" fill="#fff"/><path d="M79.894 77.076L38 52.98l10.26-18.072 42.749 24.096-11.115 18.072z" stroke="#000" stroke-linejoin="bevel"/><path d="M80.74 28.884l-29.06 5.508 39.27 22.03 28.273-5.508-38.484-22.03z" fill="#fff"/><path d="M121.787 52.98L79.893 28.884l10.26-18.072 42.749 24.096-11.115 18.072z" fill="#fff"/><path d="M121.787 52.98L79.893 28.884l10.26-18.072 42.749 24.096-11.115 18.072z" stroke="#000" stroke-linejoin="bevel"/><path d="M119.734 50.89l9.323-15.122-37.992-21.145-8.605 15.121m-2.565-.86l-31.634 6.024L91.01 59.004l30.779-6.024-41.894-24.096z" stroke="#000" stroke-linejoin="bevel"/><path d="M79.039 32.233l10.26 5.594-20.466 3.987-10.313-5.709 20.519-3.872z" fill="#FFEFA6" stroke="#000" stroke-linejoin="bevel"/><path d="M92.719 39.978l10.26 5.594-20.466 3.988-10.314-5.71 20.52-3.872zm-3.419-9.82l.69-.795a5.826 5.826 0 001.321-2.729c.197-1.037.672-2 1.372-2.786l.449-.503a8.245 8.245 0 001.01-1.41l.913-1.604m-3.192 11.548l.69-.794a5.825 5.825 0 001.322-2.73c.197-1.037.671-2 1.371-2.786l.45-.503a8.24 8.24 0 001.01-1.41l.912-1.603m19.041 24.456l.69-.795a5.832 5.832 0 001.322-2.729c.197-1.037.671-2 1.371-2.786l.449-.504a8.278 8.278 0 001.011-1.409l.912-1.604" stroke="#000" stroke-linejoin="bevel"/></svg>