<svg width="143" height="87" viewBox="0 0 143 87" fill="none" xmlns="http://www.w3.org/2000/svg">
<g clip-path="url(#clip0)">
<path d="M117.362 32.7736L142.595 47.8156L129.464 49.0087L129.464 42.2479L105.298 28.5665L117.362 32.7736Z" fill="#A0D9BC"/>
<path d="M134.238 44.6341L142.992 47.8157L96.3109 74.8251L84.6284 73.1024L134.238 44.6341Z" fill="#A0D9BC"/>
<path d="M84.7331 21.5841L108.711 35.4197L99.6206 33.0469L72.6692 17.3771L84.7331 21.5841Z" fill="#A0D9BC"/>
<path d="M99.2223 32.2516L108.775 35.3494L63.9138 61.2354L52.2313 59.5126L99.2223 32.2516Z" fill="#A0D9BC"/>
<rect width="25.1613" height="48.3322" transform="matrix(0.86615 0.499785 -0.86615 0.499785 70.3516 18.985)" fill="#B1F1D0"/>
<path d="M72.8615 17.5367L96.8393 31.3724L51.9777 57.2583L28 43.4227L72.8615 17.5367Z" stroke="black" stroke-linejoin="bevel"/>
<path d="M35.959 42.9893L53.6436 53.1936" stroke="black" stroke-linejoin="bevel"/>
<path d="M38.3457 41.3984L56.0303 51.6028" stroke="black" stroke-linejoin="bevel"/>
<path d="M96.8393 33.7585L51.9777 59.6445L28 45.8089" stroke="black" stroke-linejoin="bevel"/>
<rect width="25.3938" height="49.2319" transform="matrix(0.86615 0.499785 -0.86615 0.499785 103.759 29.7247)" fill="#B1F1D0"/>
<path d="M105.488 28.7262L129.466 42.5618L84.6047 68.4478L60.627 54.6122L105.488 28.7262Z" stroke="black" stroke-linejoin="bevel"/>
<path d="M114.918 46.8852L123.19 42.1122L105.505 31.9078L97.2334 36.6808" stroke="black" stroke-linejoin="bevel"/>
<path d="M68.5859 54.1787L86.2705 64.3831" stroke="black" stroke-linejoin="bevel"/>
<path d="M70.9727 52.5879L88.6573 62.7923" stroke="black" stroke-linejoin="bevel"/>
<path d="M99.7366 39.6674L110.505 45.8811L90.3575 57.5067L79.5889 51.293L99.7366 39.6674Z" fill="white" stroke="black" stroke-linejoin="bevel"/>
<path d="M129.466 44.948L84.6047 70.834L60.627 56.9984" stroke="black" stroke-linejoin="bevel"/>
<path d="M129.466 47.3484L84.6047 73.2344L60.627 59.3988" stroke="black" stroke-linejoin="bevel"/>
<path d="M73.8629 37.4356C70.289 39.6099 64.4946 39.6099 60.9207 37.4356C57.3468 35.2613 57.3468 31.736 60.9207 29.5617C64.4946 27.3873 70.289 27.3873 73.8629 29.5617C77.4368 31.736 77.4368 35.2613 73.8629 37.4356Z" stroke="black" stroke-linejoin="bevel"/>
</g>
<defs>
<clipPath id="clip0">
<rect width="143" height="87" fill="white"/>
</clipPath>
</defs>
</svg>
