<svg width="143" height="87" fill="none" xmlns="http://www.w3.org/2000/svg"><g clip-path="url(#clip0)"><path d="M117.362 32.774l25.233 15.042-13.131 1.193v-6.761l-24.166-13.681 12.064 4.207z" fill="#A0D9BC"/><path d="M134.238 44.634l8.754 3.182-46.681 27.01-11.683-1.724 49.61-28.468zm-49.505-23.05l23.978 13.836-9.09-2.373-26.952-15.67 12.064 4.207z" fill="#A0D9BC"/><path d="M99.222 32.252l9.553 3.097-44.861 25.886-11.683-1.722 46.991-27.261z" fill="#A0D9BC"/><path fill="#B1F1D0" d="M70.352 18.985L92.145 31.56 50.282 55.716 28.489 43.14z"/><path d="M72.862 17.537l23.977 13.835-44.861 25.886L28 43.423l44.862-25.886zM35.959 42.99l17.685 10.204M38.346 41.398L56.03 51.603" stroke="#000" stroke-linejoin="bevel"/><path d="M96.84 33.758L51.977 59.644 28 45.81" stroke="#000" stroke-linejoin="bevel"/><path fill="#B1F1D0" d="M103.759 29.725l21.995 12.691-42.642 24.606L61.117 54.33z"/><path d="M105.488 28.726l23.978 13.836-44.861 25.886-23.978-13.836 44.861-25.886z" stroke="#000" stroke-linejoin="bevel"/><path d="M114.918 46.885l8.272-4.773-17.685-10.204-8.272 4.773M68.586 54.179L86.27 64.383M70.973 52.588l17.684 10.204" stroke="#000" stroke-linejoin="bevel"/><path d="M99.737 39.667l10.768 6.214-20.147 11.626-10.77-6.214 20.149-11.626z" fill="#fff" stroke="#000" stroke-linejoin="bevel"/><path d="M129.466 44.948L84.605 70.834 60.627 56.998" stroke="#000" stroke-linejoin="bevel"/><path d="M129.466 47.348L84.605 73.234 60.627 59.4m13.236-21.964c-3.574 2.174-9.368 2.174-12.942 0-3.574-2.175-3.574-5.7 0-7.874 3.574-2.175 9.368-2.175 12.942 0 3.574 2.174 3.574 5.7 0 7.874z" stroke="#000" stroke-linejoin="bevel"/></g><defs><clipPath id="clip0"><path fill="#fff" d="M0 0h143v87H0z"/></clipPath></defs></svg>