<svg width="88" height="87" fill="none" xmlns="http://www.w3.org/2000/svg"><path fill="#FFE1D3" d="M10.22 37.918L59.267 9.922l-.002 34.87L10.22 72.79z"/><path d="M10.72 71.928V35.66L62.352 6.188l-.001 36.268-51.63 29.472z" stroke="#000" stroke-linejoin="bevel"/><path d="M60.713 3.551L8.083 33.594l-.001 37.42" stroke="#000" stroke-linejoin="bevel"/><path d="M58.019 1.776L5.389 31.818l-.001 37.42" stroke="#000" stroke-linejoin="bevel"/><path d="M39.28 42.478L11.72 35.2 61.57 6.745 39.28 42.478z" fill="#FFE1D3" stroke="#000" stroke-linejoin="bevel"/><path d="M26.49 47.495L10.41 72.467l51.998-29.855-8.98-2.663" stroke="#000" stroke-linejoin="bevel"/><path d="M63.652 42.474l15.368 2.22-52.877 30.179-15.368-2.22 52.877-30.179z" fill="#E5CABE"/><path d="M39.74 36.996l.38.583.381-1.014a9.964 9.964 0 011.078-2.1c.53-.771 1.124-1.34 1.774-1.709 1.818-1.028 3.23-.128 3.23 2.233 0 1.25-.432 2.566-1.255 4.17-.833 1.627-2.035 3.483-3.532 5.794h0c-.505.78-1.079 1.665-1.676 2.602a83.937 83.937 0 00-1.674-.706h-.001 0c-1.498-.617-2.699-1.114-3.532-1.797-.823-.673-1.254-1.502-1.254-2.752 0-2.36 1.412-4.858 3.23-5.886.65-.369 1.243-.47 1.773-.3l.266-.545-.266.546c.516.165.867.558 1.078.881z" fill="#FFE1D3" stroke="#000"/><path d="M41.537 37.884l.38.583.381-1.014a9.961 9.961 0 011.078-2.1c.53-.771 1.124-1.341 1.774-1.71 1.818-1.027 3.23-.127 3.23 2.233 0 1.25-.432 2.567-1.255 4.172-.833 1.625-2.035 3.482-3.532 5.793h0c-.505.779-1.079 1.665-1.676 2.602a82.635 82.635 0 00-1.674-.706h-.001 0c-1.498-.617-2.699-1.114-3.533-1.797-.822-.674-1.254-1.503-1.253-2.752 0-2.36 1.411-4.858 3.229-5.887.65-.368 1.244-.47 1.774-.299l.265-.546-.265.546c.516.166.867.56 1.078.882z" fill="#fff" stroke="#000"/></svg>