<svg width="99" height="87" fill="none" xmlns="http://www.w3.org/2000/svg"><g clip-path="url(#clip0)"><path d="M73.58 51.026l17.345-3.269-40.56 23.515-11.44-.153L73.58 51.026z" fill="#C4C4C4"/><path d="M60.476 29.878l30.45 17.879-17.334 4.234-.468-8.468-13.117-6.705.469-6.94z" fill="#C4C4C4"/><path d="M62.35 37.406l10.948 6.235-34.285 19.878L4.73 43.641l2.342-1.47m-.703 4.29l-1.64 1.056 34.285 19.878 34.285-19.878-1.727-1.056M6.368 50.193l-1.64 1.056 34.285 19.878L73.298 51.25l-1.727-1.056" stroke="#000" stroke-linejoin="bevel"/><path d="M32.368 15.293L59.94 30.82c1.537 8.697-3.273 17.37-13.265 23.916l-7.66 5.02L7.481 41.472c14.385-5.21 23.558-14.12 24.64-23.935l.247-2.244z" fill="#F2F2F2"/><path d="M39.01 59.176L5.86 39.954c15.116-6.327 24.285-16.565 24.285-27.644v-.894l29.448 15.46c3.292 10.574-2.405 21.535-15.655 29.382l-4.926 2.918z" stroke="#000" stroke-linejoin="bevel"/><path d="M51.575 28.938l-17.653-9.88c-.625 3.145-1.943 6.208-3.897 9.12" stroke="#000" stroke-linejoin="bevel"/></g><defs><clipPath id="clip0"><path fill="#fff" d="M0 0h99v87H0z"/></clipPath></defs></svg>