<svg width="99" height="87" viewBox="0 0 99 87" fill="none" xmlns="http://www.w3.org/2000/svg">
<g clip-path="url(#clip0)">
<path d="M73.5796 51.026L90.925 47.7571L50.3655 71.2724L38.9248 71.1191L73.5796 51.026Z" fill="#C4C4C4"/>
<path d="M60.4756 29.8785L90.9255 47.757L73.5923 51.9914L73.1238 43.5226L60.0069 36.8182L60.4756 29.8785Z" fill="#C4C4C4"/>
<path d="M62.3493 37.4064L73.298 43.6407L39.0133 63.5192L4.72856 43.6407L7.07085 42.1702M6.36816 46.4608L4.72852 47.517L39.0132 67.3955L73.298 47.517L71.5713 46.4609M6.36816 50.1925L4.72852 51.2488L39.0132 71.1273L73.298 51.2488L71.5713 50.1926" stroke="black" stroke-linejoin="bevel"/>
<path d="M32.3681 15.2932L59.9393 30.8193C61.4756 39.5158 56.6655 48.1883 46.6744 54.7354L39.014 59.7553L7.48138 41.4724C21.866 36.2619 31.0386 27.3514 32.1206 17.5373L32.3681 15.2932Z" fill="#F2F2F2"/>
<path d="M39.0105 59.1758L5.85852 39.954C20.9754 33.6271 30.144 23.3892 30.144 12.31L30.144 11.4157L59.5922 26.8752C62.8844 37.45 57.1865 48.4115 43.9369 56.2582L39.0105 59.1758Z" stroke="black" stroke-linejoin="bevel"/>
<path d="M51.5746 28.9375L33.9224 19.0573C33.2972 22.2029 31.9788 25.2662 30.0254 28.1778" stroke="black" stroke-linejoin="bevel"/>
</g>
<defs>
<clipPath id="clip0">
<rect width="99" height="87" fill="white"/>
</clipPath>
</defs>
</svg>
