<svg width="86" height="87" fill="none" xmlns="http://www.w3.org/2000/svg"><path fill-rule="evenodd" clip-rule="evenodd" d="M62.341 45.73L47.672 25.436 38.218 49.56l-5.885-3.437-14.67 25.706 15.339-8.96 29.34-17.138z" fill="#C4C4C4"/><ellipse rx="6.207" ry="6.261" transform="matrix(.86349 -.50437 -.00003 1 25.916 40.008)" fill="#C4C4C4"/><path d="M73.445 50.215L58.777 29.921l-9.455 24.123-5.885-3.437-14.67 25.705 44.678-26.097z" fill="#F2F2F2"/><path d="M73.445 50.215L58.777 29.921l-9.455 24.123-5.885-3.437-14.67 25.705" stroke="#000"/><ellipse rx="6.207" ry="6.261" transform="matrix(.86349 -.50437 -.00003 1 37.02 44.493)" fill="#F2F2F2"/><path d="M37.165 50.873c-2.96 1.729-5.36.332-5.36-3.12 0-3.453 2.4-7.654 5.36-9.383" stroke="#000"/><path d="M18.483 37.627l55.3-32.3-.002 44.823-55.3 32.3.002-44.823z" stroke="#000" stroke-linejoin="bevel"/><ellipse rx="1.841" ry="1.857" transform="matrix(.86349 -.50437 -.00003 1 22.611 41.581)" fill="#000"/><path d="M15.146 36.463l8.101 3.375m-10.007 0l8.578 3.375" stroke="#000"/><ellipse rx="1.841" ry="1.857" transform="matrix(.86349 -.50437 -.00003 1 70.27 12.653)" fill="#000"/><path d="M62.804 7.536l8.102 3.375m-10.008-.001l8.578 3.376" stroke="#000"/><ellipse rx="1.841" ry="1.857" transform="matrix(.86349 -.50437 -.00003 1 21.658 76.294)" fill="#000"/><path d="M14.192 71.177l8.102 3.374m-10.008.001l8.579 3.374" stroke="#000"/></svg>