<svg width="87" height="87" fill="none" xmlns="http://www.w3.org/2000/svg"><g clip-path="url(#clip0)"><path d="M2.858 53.936v2.932m36.159 18.079v2.932" stroke="#000"/><path d="M37.559 34.211l49.098 22.055-56.85 7.048L13.365 47.34l24.194-13.13z" fill="#A0D9BC"/><path d="M75.663 53.936v2.932" stroke="#000"/><path d="M75.636 56.865L39.247 77.873 2.858 56.865" stroke="#000" stroke-linejoin="bevel"/><path d="M75.398 57.204l11.259-.938-38.098 22.39-9.355-.557 36.194-20.895z" fill="#A0D9BC"/><path d="M65.438 48.29l10.198 5.643-36.389 21.008L2.858 53.933l15.019-8.67" stroke="#000" stroke-linejoin="bevel"/><path d="M1.43 24.834l-.782 2.825M30.67 54.732l-.783 2.826m41.707-13.294l-.782 2.825" stroke="#000"/><path d="M70.786 47.08L30.111 57.612.648 27.656" stroke="#000" stroke-linejoin="bevel"/><path fill="#B1F1D0" d="M41.426 17.51l26.98 27.433-37.762 9.779-26.98-27.433z"/><path d="M42.106 14.297l29.462 29.957-40.675 10.534L1.431 24.83l40.675-10.534z" stroke="#000" stroke-linejoin="bevel"/><path d="M63.417 40.886l-22.243-8.5.311 9.276-9.385-2.53-2.932 10.872 34.25-9.118z" fill="#fff"/><path d="M63.117 40.334l-22.242-8.499.31 9.276L31.8 38.58l-2.932 10.872" stroke="#000"/><circle transform="matrix(.96634 -.25726 .70601 .7082 20.194 30.701)" fill="#fff" r="5.381"/></g><defs><clipPath id="clip0"><path fill="#fff" d="M0 0h87v87H0z"/></clipPath></defs></svg>