<svg width="87" height="87" fill="none" xmlns="http://www.w3.org/2000/svg"><g clip-path="url(#clip0)"><path d="M21.025 84.186l34.853-20.12 12.456 2.009-34.852 20.12-12.457-2.009z" fill="#D7C7ED"/><path d="M24.963 26.271l34.656-20.01-.002 56.949-29.293 16.914-1.097-.33c-2.267-.684-3.792-2.718-4.264-5.69V26.27z" fill="#E5D4FC"/><path d="M26.726 74.104l36.49-20.559 3.085 5.14-1.716 1.614-34.442 19.887-.524-4.213-2.893-1.869z" fill="#E5D4FC"/><path d="M22.614 75.349c0 2.03 1.611 4.5 3.598 5.515 1.987 1.016 3.598.193 3.598-1.838 0-2.03-1.611-4.5-3.598-5.515m35.976-19.966c1.987 1.016 3.598 2.892 3.598 4.922 0 .774-.233 1.372-.632 1.76-.385.374-1.938 1.542-1.938 1.542" stroke="#000" stroke-linejoin="bevel"/><path d="M59.621 55.087V6.261L22.615 27.628v48.018m2.055-52.423v-8.131M54.48-7.102v12.85M26.726 73.884l35.977-20.339M28.781 81.08l35.977-20.34" stroke="#000" stroke-linejoin="bevel"/><path d="M22.614 29.157l-3.084 1.781v-5.25L62.08 1.121v5.25L59.6 7.803" stroke="#000" stroke-linejoin="bevel"/><path d="M30.791 35.092L52.75 22.414v15.054L30.79 50.147V35.092z" fill="#fff" stroke="#000" stroke-linejoin="bevel"/><path d="M52.75 45.495L30.79 58.174m.001 4.438l1.459-1.314c.823-.742 1.705-1.13 2.451-1.077l.207.014c.853.06 1.892-.54 2.745-1.585.852-1.044 1.892-1.644 2.745-1.584.852.059 1.892-.541 2.744-1.585.853-1.044 1.893-1.644 2.745-1.585.853.06 1.892-.541 2.745-1.585l.207-.254c.746-.913 1.628-1.544 2.451-1.753l1.46-.37" stroke="#000" stroke-linejoin="bevel"/></g><defs><clipPath id="clip0"><path fill="#fff" d="M0 0h87v87H0z"/></clipPath></defs></svg>