<svg width="88" height="87" fill="none" xmlns="http://www.w3.org/2000/svg"><path fill="#E5D795" d="M11.653 67.14l38.515-21.982 21.376 12.2L33.03 79.34z"/><path d="M8.197 61.056l26.276-14.998 21.377 12.2-26.277 14.998-14.17-6.93-7.206-5.27z" fill="#E5D795"/><path d="M43.102 84.78l38.163-21.75-17.34-9.39a3.52 3.52 0 01-.142-.08c-.445-.269-2.865-1.83-2.865-4.004V6.244c0-4.508-2.598-4.631-3.898-4.13l-38.612 21.75 1.347.444c2.514.355 3.442 3.402 3.592 4.88v38.116c0 2.169.552 3.933 1.157 5.215.808 1.712 2.368 2.872 4.007 3.82l14.591 8.441z" fill="#FFEFA6"/><path d="M23.347 29.189v38.115c0 2.169.552 3.933 1.157 5.215.808 1.712 2.368 2.872 4.006 3.82l14.592 8.442 38.163-21.75-17.34-9.39a3.448 3.448 0 01-.142-.08c-.445-.27-2.865-1.831-2.865-4.005V6.244M18.857 67.411V29.296M17.959 24L56.571 2.25" stroke="#000" stroke-linejoin="bevel"/><path d="M23.347 29.138c0 1.754-1.407 2.465-3.143 1.588-1.735-.877-3.142-3.01-3.143-4.763 0-1.754 1.407-2.465 3.143-1.588 1.736.877 3.143 3.01 3.143 4.763z" stroke="#000" stroke-linejoin="bevel"/><path d="M14.368 65.401c0 1.754-1.407 2.465-3.143 1.588-1.736-.877-3.143-3.01-3.143-4.764 0-1.753 1.407-2.464 3.143-1.587 1.736.877 3.143 3.01 3.143 4.763z" fill="#E5D795"/><path d="M21.551 28.344c0 .877-.603 1.233-1.347.794-.744-.438-1.347-1.505-1.347-2.381 0-.877.603-1.233 1.347-.794.744.438 1.347 1.505 1.347 2.381zm39.51-21.656c0-1.855-.47-3.553-1.796-4.438-.894-.597-1.796-.667-2.694 0" stroke="#000" stroke-linejoin="bevel"/><path d="M57.359 43.673L47.96 30.966 41.904 46.07l-3.77-2.152-9.4 16.095 28.625-16.34z" fill="#fff"/><path d="M57.359 43.673L47.96 30.966 41.904 46.07l-3.77-2.152-9.4 16.095" stroke="#000"/><ellipse rx="3.954" ry="3.92" transform="matrix(.86847 -.49575 -.00003 1 34.022 40.09)" fill="#fff"/><path d="M34.115 44.084c-1.897 1.083-3.434.208-3.434-1.953 0-2.162 1.537-4.792 3.434-5.875" stroke="#000"/></svg>