<svg width="115" height="87" fill="none" xmlns="http://www.w3.org/2000/svg"><g clip-path="url(#clip0)"><path d="M71.215 8.878L114 30.18l-12.003 6.9L71.215 8.878zM96.37 44.85c-2.814 3.233-8.514 5.196-12.732 4.386-4.217-.81 5.597-1.949 8.41-5.181 2.813-3.232-2.44-7.333 1.779-6.523 4.217.81 5.356 4.086 2.542 7.319z" fill="#C7E0ED"/><path d="M58.566 29.773L5.692 60.368l31.966 18.514L90.53 48.287l2.919-2.886c1.881-2.142 2.8-4.907 3.023-6.023l.337-.669c-.807-2.944.783-5.687 1.68-6.691 2.418-4.015 5.039-4.35 6.047-4.015L75.411 10.824c-2.15-1.338-3.584-1.45-4.032-1.338-1.881 0-3.92 2.23-4.704 3.346-2.015 2.007-2.351 8.03-2.351 8.364-.27 3.212-3.95 7.056-5.758 8.577z" fill="#D4EEFC"/><ellipse rx="7.776" ry="7.759" transform="matrix(.98206 .18859 -.65655 .75429 105.788 34.84)" fill="#C7E0ED"/><path d="M56.783 28.885L2.18 60.278l33.748 19.401 54.604-31.392M71.276 8.598l32.741 19.068m-7.482 10.039c0 3.88-2.735 8.598-6.11 10.538M62.877 17.631c0 4.26-2.98 9.427-6.658 11.541m40.254 8.7c0-3.51 2.475-7.78 5.528-9.535" stroke="#000" stroke-linejoin="bevel"/><path d="M62.877 17.846c0-3.2 2.256-7.092 5.04-8.692 1.394-.802 2.656-.876 3.568-.349" stroke="#000" stroke-linejoin="bevel"/><ellipse rx="5.813" ry="5.795" transform="matrix(.86691 -.49846 -.00003 1 101.513 34.354)" stroke="#000" stroke-linejoin="bevel"/><ellipse rx="1.623" ry="1.618" transform="matrix(.86691 -.49846 -.00003 1 101.513 34.354)" stroke="#000" stroke-linejoin="bevel"/><path transform="scale(1.22604 .70484) rotate(-45 104.914 25.58)" fill="#fff" stroke="#000" stroke-linejoin="bevel" d="M0 0h24.67v11.928H0z"/><path d="M51.149 54.153L29.762 66.45m24.062-9.634L32.437 69.112" stroke="#000" stroke-linejoin="bevel"/><path d="M60.072 46.918l12.282-6.843c2.768-1.542 4.864-3.437 6.12-5.531l1.12-1.872 10.342 5.945-1.122 1.872c-1.255 2.094-3.351 3.99-6.118 5.531l-12.283 6.843-10.341-5.945z" fill="#fff" stroke="#000" stroke-linejoin="bevel"/><path d="M75.984 30.184l-1.122 1.871c-1.255 2.095-3.352 3.99-6.119 5.532L56.46 44.43m15.957-16.022l-1.121 1.872c-1.256 2.094-3.352 3.99-6.12 5.531l-12.282 6.843" stroke="#000" stroke-linejoin="bevel"/></g><defs><clipPath id="clip0"><path fill="#fff" d="M0 0h115v87H0z"/></clipPath></defs></svg>