<svg width="106" height="87" fill="none" xmlns="http://www.w3.org/2000/svg"><path d="M49.358 70.974l52.634-31.18L64.449 17.05l-10.674-1.1L86.9 34.29v7.337L37.21 70.973h12.147z" fill="#C7E0ED"/><path d="M53.922 18.517L4.454 46.69l32.979 18.78L86.9 37.3 53.922 18.517z" fill="#D4EEFC"/><path d="M85.89 34.364L37.434 61.961 5.464 43.755l48.458-27.597 31.969 18.206z" stroke="#000" stroke-linejoin="bevel"/><path d="M4.454 46.396l32.979 19.075L86.9 36.86" stroke="#000" stroke-linejoin="bevel"/><path d="M55.247 44.195l2.528-1.953a14.76 14.76 0 015.19-2.572l.664-.179a12.29 12.29 0 005.688-3.37 12.283 12.283 0 014.303-2.91l3.711-1.488m-15.458-8.07l-1.776.53a2.997 2.997 0 00-1.866 1.623v0a2.997 2.997 0 01-2.496 1.739l-.35.026a2.65 2.65 0 00-2.208 1.538v0a2.65 2.65 0 01-2.207 1.538l-.554.043a2.65 2.65 0 00-2.208 1.537v0a2.65 2.65 0 01-2.207 1.538l-.599.046a3.67 3.67 0 00-2.502 1.265l-.903 1.049m17.666-13.939l-1.871.54a3.046 3.046 0 00-1.907 1.618v0a3.045 3.045 0 01-2.527 1.73l-.47.034a2.702 2.702 0 00-2.242 1.534v0a2.702 2.702 0 01-2.242 1.535l-.67.049a2.702 2.702 0 00-2.241 1.534v0a2.702 2.702 0 01-2.242 1.534l-.676.05a3.87 3.87 0 00-2.602 1.282l-.921 1.032" stroke="#000" stroke-linejoin="bevel"/><path d="M4.454 49.086l32.979 18.586L86.9 39.793" stroke="#000" stroke-linejoin="bevel"/><path d="M4.454 51.532l32.979 19.075L86.9 41.994M34.78 45.63c-1.026.59-2.404.9-3.808.9s-2.781-.31-3.808-.9c-1.03-.593-1.43-1.3-1.43-1.902 0-.602.4-1.308 1.43-1.9 1.027-.591 2.404-.9 3.808-.9s2.782.309 3.808.9c1.03.592 1.43 1.298 1.43 1.9 0 .603-.4 1.31-1.43 1.901z" stroke="#000" stroke-linejoin="bevel"/><path fill-rule="evenodd" clip-rule="evenodd" d="M45.905 45.724c-3.267-1.53-8.082-1.42-11.126.332-3.052 1.756-3.237 4.537-.553 6.417l1.306-.754c-1.968-1.463-1.785-3.573.547-4.916 2.326-1.338 5.98-1.446 8.52-.324l1.306-.755z" fill="#000"/></svg>