<svg width="87" height="87" fill="none" xmlns="http://www.w3.org/2000/svg"><g clip-path="url(#clip0)"><path fill-rule="evenodd" clip-rule="evenodd" d="M60.762 64.836c.212-.285.42-.575.623-.869 7.629-11.055 6.194-25.298-2.63-34.497a31.784 31.784 0 013.252-.2c6.813-.06 11.64 2.265 13.955 6.083.616 1.017.483 2.285-.103 3.32L61.241 64.52c-.159.106-.319.212-.48.317z" fill="#E5CABE"/><path fill-rule="evenodd" clip-rule="evenodd" d="M40.054 76.433c8.148-1.223 15.87-4.257 20.757-8.964 8.144-7.842 5.96-19.047-.051-25.83 4.468-.061 8.796.51 12.618 1.79 13.01 4.354 15.225 15.251 4.95 24.34-6.602 5.838-23.549 8.594-38.274 8.664z" fill="#E5CABE"/><path d="M6.105 43.878C3.487 49.7 6.13 56.149 14.03 60.71c11.87 6.852 31.114 6.852 42.984 0 6.523-3.766 9.461-8.817 8.815-13.741" stroke="#000"/><path d="M65.337 48.013c1.9 5.55-.873 11.528-8.323 15.829-11.87 6.852-31.114 6.852-42.984 0-6.062-3.5-9.028-8.111-8.898-12.698" stroke="#000"/><path d="M6.105 49.58c-2.618 6.051.024 12.753 7.925 17.494 11.87 7.122 31.114 7.122 42.984 0 6.523-3.914 9.461-9.164 8.815-14.281" stroke="#000"/><path d="M65.337 53.877c1.9 5.768-.873 11.981-8.323 16.451-11.87 7.122-31.114 7.122-42.984 0-6.062-3.637-9.028-8.43-8.898-13.197" stroke="#000"/><path d="M5.708 41.752c-1.901 5.55.873 11.527 8.322 15.828 11.87 6.852 31.114 6.852 42.984 0 7.45-4.3 10.224-10.279 8.323-15.828" stroke="#000"/><path d="M56.824 54.05c-5.846 3.376-13.54 5.078-21.262 5.078-7.721 0-15.415-1.703-21.262-5.078-5.85-3.377-8.66-7.732-8.66-11.986 0-4.253 2.81-8.609 8.66-11.986 5.847-3.375 13.54-5.077 21.262-5.077 7.721 0 15.416 1.702 21.262 5.077 5.85 3.377 8.66 7.733 8.66 11.986 0 4.254-2.81 8.61-8.66 11.986z" fill="#FFE1D3" stroke="#000"/><path d="M62.91 25.577c.324.903.028 1.933-.669 2.736L45.883 47.14c-2.004 2.307-4.483 4.153-7.36 5.04-6.844 2.112-14.03 2.795-20.184 1.6-6.649-1.29-10.738-4.5-12.128-8.534-1.39-4.033-.147-9.081 4.295-14.194 4.44-5.11 11.179-9.238 18.499-11.761 7.32-2.523 15.171-3.424 21.817-2.134 6.586 1.278 10.66 4.441 12.088 8.42z" fill="#FFE1D3" stroke="#000"/><path d="M43.056 37.73c-1.052 1.208-1.692 3.55-2.2 5.326-4 2.372-9.193 3.54-13.329 2.732-5.708-1.116-7.238-5.575-3.417-9.96 3.82-4.386 11.546-7.036 17.254-5.92 3.12.61 4.992 2.22 5.424 4.27-1.068.444-2 1.564-3.732 3.551z" fill="#fff"/><path d="M63.522 25.93c-8.364 2.168-15.297 5.672-19.227 10.194-3.93 4.523-4.207 9.319-1.48 13.638m-22.1.402c-11.135-1.995-13.69-10.11-5.709-18.126 7.982-8.016 23.478-12.896 34.613-10.901" stroke="#000"/></g><defs><clipPath id="clip0"><path fill="#fff" d="M0 0h87v87H0z"/></clipPath></defs></svg>