<svg width="107" height="98" fill="none" xmlns="http://www.w3.org/2000/svg"><g clip-path="url(#clip0)"><path d="M86.924 54.555l16.494 2.921-60.245 34.78-16.494-2.921 60.245-34.78zM18.195 68.693v.942l.472.471 2.827 8.955-5.272-1.156L5 76.139l13.195-7.446z" fill="#E6E6E6"/><path d="M74.08 5.515L12.998 40.783l-7.056 34.96 12.215-7.05" stroke="#000" stroke-linecap="round" stroke-linejoin="bevel"/><path d="M27.582 89.428l-3.877-1.136-6.49-23.37-5.29-18.514" stroke="#000" stroke-linecap="round" stroke-linejoin="bevel"/><path d="M16.745 39.424L73.698 6.54 86.85 52.575 29.898 85.46 16.745 39.424z" fill="#F2F2F2"/><path d="M13.494 40.475L74.577 5.206l14.106 49.373-61.082 35.269-14.107-49.373z" stroke="#000" stroke-linejoin="bevel"/><path d="M25.14 40.578c.342 1.363-.199 3.259-1.208 4.236-1.01.977-2.104.664-2.445-.698-.342-1.363.2-3.259 1.209-4.236 1.009-.977 2.104-.664 2.445.698zm7.945-4.339c.342 1.362-.2 3.259-1.209 4.235-1.009.977-2.104.665-2.445-.698-.341-1.362.2-3.258 1.21-4.235 1.008-.977 2.103-.664 2.444.698zm7.757-4.348c.342 1.362-.2 3.259-1.209 4.236-1.009.976-2.104.664-2.445-.699-.342-1.362.2-3.258 1.209-4.235 1.009-.977 2.104-.664 2.445.698zm7.756-4.348c.341 1.362-.2 3.259-1.21 4.236-1.008.976-2.103.664-2.444-.698-.342-1.363.2-3.26 1.209-4.236 1.009-.977 2.104-.664 2.445.698zm7.756-4.348c.341 1.362-.2 3.259-1.21 4.235-1.008.977-2.103.665-2.444-.698-.342-1.362.2-3.258 1.209-4.235 1.009-.977 2.104-.664 2.445.698zm7.756-4.348c.342 1.362-.2 3.258-1.208 4.235-1.01.977-2.104.665-2.446-.698-.34-1.362.2-3.258 1.21-4.235 1.009-.977 2.103-.665 2.445.698zm7.74-4.018c.342 1.362-.2 3.259-1.208 4.235-1.01.977-2.104.665-2.445-.698-.342-1.362.2-3.258 1.209-4.235 1.009-.977 2.104-.664 2.445.698z" fill="#E6E6E6"/><path d="M17.425 38.727c-.696-1.38-1.114-2.872-1.114-4.236 0-3.126 2.194-4.393 4.901-2.83 2.707 1.563 4.902 5.364 4.902 8.49 0 2.438-1.335 3.745-3.206 3.461m2.057-9.598c-.696-1.379-1.114-2.872-1.114-4.236 0-3.126 2.194-4.393 4.901-2.83 2.707 1.563 4.902 5.364 4.902 8.49 0 2.438-1.335 3.745-3.206 3.462m2.058-9.598c-.696-1.38-1.114-2.873-1.114-4.237 0-3.126 2.194-4.393 4.901-2.83 2.707 1.563 4.902 5.364 4.902 8.49 0 2.438-1.334 3.745-3.206 3.462m2.057-9.598c-.696-1.38-1.114-2.872-1.114-4.237 0-3.125 2.194-4.393 4.901-2.83 2.707 1.564 4.902 5.365 4.902 8.49 0 2.439-1.334 3.746-3.206 3.462m2.999-8.655c-.696-1.38-1.114-2.872-1.114-4.237 0-3.126 2.194-4.393 4.902-2.83 2.707 1.564 4.901 5.365 4.901 8.49 0 2.438-1.334 3.746-3.205 3.462m2.058-9.598c-.697-1.38-1.115-2.872-1.115-4.237 0-3.125 2.195-4.392 4.902-2.83 2.707 1.564 4.901 5.365 4.901 8.49 0 2.439-1.334 3.746-3.205 3.462m2.057-9.598c-.697-1.379-1.115-2.872-1.115-4.236 0-3.126 2.194-4.393 4.902-2.83 2.707 1.563 4.901 5.364 4.901 8.49 0 2.438-1.334 3.745-3.205 3.461m-42.169 40.7l-1.56-5.548 4.65-2.685 1.56 5.548-4.65 2.685zm8.483-4.712l-1.56-5.549 4.65-2.685 1.56 5.548-4.65 2.686zm8.483-4.713l-1.56-5.548 4.65-2.685 1.56 5.548-4.65 2.685zm8.483-4.713l-1.56-5.548 4.65-2.685 1.56 5.548-4.65 2.685zm8.483-4.713l-1.56-5.548 4.65-2.685 1.56 5.548-4.65 2.685zm8.483-4.712l-1.56-5.548 4.65-2.686 1.56 5.549-4.65 2.685z" stroke="#000"/><path d="M27.621 60.685l5.55-3.205 1.802 6.409-5.55 3.204-1.802-6.408zm8.484-4.713l5.55-3.204 1.801 6.408-5.55 3.205-1.801-6.409zm8.482-4.712l5.55-3.205 1.802 6.409-5.55 3.204-1.802-6.408zm8.483-4.713l5.55-3.204 1.802 6.408-5.55 3.204-1.802-6.408zm8.483-4.713l5.55-3.204 1.802 6.408-5.55 3.205-1.802-6.409zm8.483-4.713l5.55-3.204 1.802 6.408-5.55 3.205-1.802-6.409z" fill="#fff"/></g><defs><clipPath id="clip0"><path fill="#fff" d="M0 0h107v98H0z"/></clipPath></defs></svg>