<svg width="98" height="98" fill="none" xmlns="http://www.w3.org/2000/svg"><path fill="#F2F2F2" d="M11.382 42.713L66 11.176v39.28L11.38 81.993z"/><path d="M11.88 81.126l.002-40.996 57.61-33.264v40.996L11.88 81.126z" stroke="#000" stroke-linejoin="bevel"/><path d="M67.612 4L9.002 37.841 9 79.992" stroke="#000" stroke-linejoin="bevel"/><path d="M64.612 2L6.002 35.841 6 77.992" stroke="#000" stroke-linejoin="bevel"/><path d="M43.77 47.92l-30.88-8.246L68.74 7.427 43.77 47.92z" fill="#F2F2F2" stroke="#000" stroke-linejoin="bevel"/><path d="M29.5 53.5L11.593 81.63 69.5 48l-10-3" stroke="#000" stroke-linejoin="bevel"/><path d="M70.885 47.845L88 50.345 29.115 84.34 12 81.84l58.885-33.995z" fill="#E6E6E6"/><path d="M44.3 41.645l.38.582.38-1.02c.236-.637.632-1.535 1.213-2.391.6-.882 1.271-1.536 2.007-1.96 2.054-1.187 3.646-.172 3.646 2.504 0 1.42-.487 2.917-1.408 4.732-.932 1.837-2.274 3.934-3.94 6.535h0c-.563.88-1.203 1.878-1.868 2.933h0a.093.093 0 01-.03.032c-.013.007-.023.008-.031.004h0c-.665-.287-1.304-.547-1.866-.776h-.002 0c-1.666-.678-3.008-1.226-3.94-1.986-.92-.752-1.408-1.686-1.408-3.106 0-2.676 1.593-5.53 3.647-6.715.735-.425 1.407-.546 2.006-.357l.265-.548-.265.548c.582.184.977.626 1.214.99z" fill="#F2F2F2" stroke="#000"/><path d="M46.3 42.645l.38.582.38-1.02c.236-.637.632-1.535 1.213-2.391.6-.882 1.271-1.536 2.007-1.96 2.054-1.187 3.646-.172 3.646 2.504 0 1.42-.487 2.917-1.408 4.732-.932 1.837-2.274 3.934-3.94 6.535h0c-.563.88-1.203 1.878-1.868 2.933h0a.093.093 0 01-.03.032c-.013.007-.023.008-.031.004h0c-.665-.287-1.304-.547-1.866-.776h-.002 0c-1.666-.678-3.008-1.226-3.94-1.986-.92-.752-1.408-1.686-1.408-3.106 0-2.676 1.593-5.53 3.647-6.715.735-.425 1.407-.546 2.006-.357l.265-.548-.265.548c.582.184.977.626 1.214.99z" fill="#fff" stroke="#000"/></svg>