<svg width="112" height="98" viewBox="0 0 112 98" fill="none" xmlns="http://www.w3.org/2000/svg">
<g clip-path="url(#clip0)">
<path d="M83.2415 57.4775L102.865 53.7953L56.9791 80.2838L44.0361 80.1111L83.2415 57.4775Z" fill="#E6E6E6"/>
<path d="M68.416 33.6563L102.864 53.7952L83.2551 58.565L82.7251 49.0255L67.8858 41.4733L68.416 33.6563Z" fill="#E6E6E6"/>
<path d="M70.5357 42.1357L82.9222 49.1584L44.1354 71.5503L5.34868 49.1584L7.99855 47.5019M7.20358 52.335L5.34863 53.5248L44.1354 75.9167L82.9221 53.5248L80.9687 52.3351M7.20358 56.5386L5.34863 57.7283L44.1354 80.1202L82.9221 57.7283L80.9687 56.5387" stroke="black" stroke-linejoin="bevel"/>
<path d="M36.6177 17.2268L67.8095 34.716C69.5475 44.512 64.1057 54.281 52.8027 61.656L44.1364 67.3106L8.46311 46.7161C24.7367 40.8467 35.1137 30.8097 36.3378 19.7546L36.6177 17.2268Z" fill="#F2F2F2"/>
<path d="M44.1327 66.7317L6.48347 44.9965C23.6443 37.8782 34.0359 26.3383 34.0359 13.8664L34.0359 12.7528L67.4717 30.23C71.2249 42.1872 64.7544 54.5716 49.7399 63.4252L44.1327 66.7317Z" stroke="black" stroke-linejoin="bevel"/>
<path d="M58.3466 32.5963L38.3765 21.4668C37.6692 25.0102 36.1777 28.4608 33.9678 31.7405" stroke="black" stroke-linejoin="bevel"/>
</g>
<defs>
<clipPath id="clip0">
<rect width="112" height="98" fill="white"/>
</clipPath>
</defs>
</svg>
