<svg width="98" height="98" fill="none" xmlns="http://www.w3.org/2000/svg"><path fill-rule="evenodd" clip-rule="evenodd" d="M71.04 51.513l-16.716-22.86L43.55 55.825l-6.706-3.872-16.717 28.955 17.48-10.092L71.04 51.513z" fill="#E6E6E6"/><circle r="7.052" transform="matrix(.86601 -.50003 -.00003 1 29.533 45.067)" fill="#E6E6E6"/><path d="M83.693 56.564l-16.715-22.86-10.774 27.173-6.706-3.872L32.78 85.962l50.913-29.397z" fill="#F2F2F2"/><path d="M83.693 56.564l-16.715-22.86-10.774 27.173-6.706-3.872L32.78 85.962" stroke="#000"/><circle r="7.052" transform="matrix(.86601 -.50003 -.00003 1 42.186 50.118)" fill="#F2F2F2"/><path d="M42.35 57.305c-3.374 1.948-6.109.374-6.109-3.515 0-3.89 2.735-8.62 6.109-10.569" stroke="#000"/><path d="M21.061 42.385L84.077 6l-.002 50.49L21.06 92.875l.001-50.49z" stroke="#000" stroke-linejoin="bevel"/><circle r="2.092" transform="matrix(.86601 -.50003 -.00003 1 25.765 46.838)" fill="#000"/><path d="M17.258 41.074l9.232 3.801m-11.404 0l9.775 3.802" stroke="#000"/><circle r="2.092" transform="matrix(.86601 -.50003 -.00003 1 80.074 14.253)" fill="#000"/><path d="M71.567 8.489L80.8 12.29m-11.406 0l9.776 3.802" stroke="#000"/><circle r="2.092" transform="matrix(.86601 -.50003 -.00003 1 24.68 85.94)" fill="#000"/><path d="M16.172 80.176l9.232 3.802m-11.404 0l9.776 3.801" stroke="#000"/></svg>