<svg width="98" height="98" fill="none" xmlns="http://www.w3.org/2000/svg"><g clip-path="url(#clip0)"><path d="M3.22 60.756v3.302m40.73 20.365v3.302" stroke="#000"/><path d="M42.307 38.536L97.614 63.38l-64.037 7.94-18.523-17.995 27.253-14.789z" fill="#E6E6E6"/><path d="M85.23 60.756v3.302" stroke="#000"/><path d="M85.2 64.055L44.21 87.718 3.22 64.055" stroke="#000" stroke-linejoin="bevel"/><path d="M84.932 64.437l12.682-1.057-42.915 25.221-10.538-.627 40.77-23.537z" fill="#E6E6E6"/><path d="M73.712 54.395l11.487 6.357-40.99 23.664L3.22 60.752l16.918-9.766" stroke="#000" stroke-linejoin="bevel"/><path d="M1.612 27.974L.73 31.157m33.817 30.496l-.881 3.182M80.647 49.86l-.881 3.183" stroke="#000"/><path d="M79.737 53.032L33.92 64.898.73 31.153" stroke="#000" stroke-linejoin="bevel"/><path fill="#F2F2F2" d="M46.664 19.723l30.391 30.902L34.52 61.641 4.13 30.739z"/><path d="M47.432 16.104L80.619 49.85 34.801 61.715 1.613 27.97l45.819-11.866z" stroke="#000" stroke-linejoin="bevel"/><path d="M71.436 46.055l-25.055-9.573.35 10.448-10.572-2.85-3.303 12.246 38.58-10.27z" fill="#fff"/><path d="M71.098 45.434L46.043 35.86l.35 10.448-10.572-2.85-3.302 12.246" stroke="#000"/><circle transform="matrix(.96634 -.25726 .70601 .7082 22.747 34.583)" fill="#fff" r="6.061"/></g><defs><clipPath id="clip0"><path fill="#fff" d="M0 0h98v98H0z"/></clipPath></defs></svg>