<svg width="98" height="98" fill="none" xmlns="http://www.w3.org/2000/svg"><g clip-path="url(#clip0)"><path fill-rule="evenodd" clip-rule="evenodd" d="M68.443 73.034c.24-.321.474-.648.703-.98 8.592-12.452 6.977-28.496-2.962-38.858a35.815 35.815 0 013.662-.225c7.795-.07 13.282 2.634 15.84 7.056.596 1.03.466 2.294-.12 3.33l-16.582 29.32c-.18.12-.36.239-.541.357z" fill="#E6E6E6"/><path fill-rule="evenodd" clip-rule="evenodd" d="M45.119 86.097C54.297 84.72 62.995 81.3 68.5 76c9.174-8.834 6.714-21.456-.058-29.097 5.033-.069 9.909.576 14.214 2.017 14.654 4.904 17.15 17.18 5.575 27.417-7.436 6.577-26.526 9.681-43.112 9.76z" fill="#E6E6E6"/><path d="M6.878 49.425c-2.949 6.56.027 13.823 8.927 18.962 13.37 7.718 35.048 7.718 48.419 0 7.347-4.242 10.657-9.932 9.93-15.479" stroke="#000"/><path d="M73.599 54.084c2.141 6.251-.984 12.985-9.375 17.83-13.37 7.718-35.048 7.718-48.419 0C8.976 67.97 5.635 62.776 5.782 57.61" stroke="#000"/><path d="M6.878 55.848c-2.949 6.817.027 14.366 8.927 19.707 13.37 8.022 35.048 8.022 48.419 0 7.347-4.409 10.657-10.323 9.93-16.087" stroke="#000"/><path d="M73.599 60.69c2.141 6.497-.984 13.495-9.375 18.53-13.37 8.023-35.048 8.023-48.419 0-6.829-4.097-10.17-9.495-10.023-14.865" stroke="#000"/><path d="M6.43 47.03c-2.141 6.252.984 12.986 9.375 17.83 13.37 7.719 35.048 7.719 48.419 0 8.391-4.844 11.516-11.578 9.375-17.83" stroke="#000"/><path d="M64.04 60.94c-6.597 3.808-15.275 5.727-23.981 5.727-8.706 0-17.384-1.92-23.982-5.728-6.6-3.81-9.787-8.735-9.787-13.556 0-4.822 3.187-9.746 9.787-13.556 6.598-3.81 15.276-5.728 23.982-5.728s17.384 1.919 23.982 5.728c6.6 3.81 9.787 8.734 9.787 13.556 0 4.821-3.187 9.746-9.787 13.556z" fill="#F2F2F2" stroke="#000"/><path d="M70.998 29.004c.308.918.011 1.95-.684 2.75L51.338 53.596c-2.003 2.306-4.486 4.147-7.357 5.064-7.885 2.52-16.22 3.364-23.335 1.984-7.503-1.456-12.133-5.084-13.709-9.655-1.576-4.572-.163-10.282 4.85-16.052 5.01-5.767 12.611-10.421 20.865-13.266 8.253-2.845 17.108-3.861 24.608-2.406 7.549 1.465 12.19 5.128 13.738 9.74z" fill="#F2F2F2" stroke="#000"/><path d="M48.5 42.5c-1.186 1.36-1.907 4-2.478 6-4.506 2.672-10.356 3.988-15.014 3.077-6.43-1.257-8.153-6.28-3.85-11.22 4.304-4.94 13.005-7.925 19.435-6.668 3.516.688 5.624 2.5 6.11 4.81-1.203.5-2.252 1.762-4.203 4z" fill="#fff"/><path d="M71.553 29.21c-9.421 2.441-17.231 6.388-21.658 11.482-4.426 5.094-4.739 10.496-1.667 15.362m-24.894.453c-12.542-2.248-15.421-11.39-6.43-20.419 8.99-9.029 26.447-14.526 38.989-12.279" stroke="#000"/></g><defs><clipPath id="clip0"><path fill="#fff" d="M0 0h98v98H0z"/></clipPath></defs></svg>