<svg width="161" height="98" fill="none" xmlns="http://www.w3.org/2000/svg"><path d="M121.292 31.088L153 50l-16.5 1.5V43l-30.368-17.2 15.16 5.288z" fill="#A0D9BC"/><path d="M142.5 46l11 4-58.66 33.957-14.68-2.165L142.5 46zM80.292 17.02l30.131 17.395L99 31.432l-33.868-19.7 15.16 5.289z" fill="#A0D9BC"/><path d="M98.5 30.432l12.004 3.895-56.373 32.545-14.68-2.166L98.5 30.432z" fill="#A0D9BC"/><path fill="#B1F1D0" d="M62.22 13.753l27.386 15.81L37 59.933 9.614 44.123z"/><path d="M65.374 11.932l30.13 17.395-56.373 32.545L9 44.477l56.374-32.545zM19 43.932l22.223 12.83M22 41.932l22.223 12.83" stroke="#000" stroke-linejoin="bevel"/><path d="M95.505 32.327L39.13 64.872 9 47.477" stroke="#000" stroke-linejoin="bevel"/><path fill="#B1F1D0" d="M104.199 27.255l27.639 15.957-53.585 30.934L50.614 58.19z"/><path d="M106.374 26l30.131 17.395L80.131 75.94 50 58.545 106.374 26z" stroke="#000" stroke-linejoin="bevel"/><path d="M118.223 48.83l10.394-6L106.395 30 96 36M60 58l22.223 12.83M63 56l22.223 12.83" stroke="#000" stroke-linejoin="bevel"/><path d="M99.145 39.756l13.532 7.812-25.318 14.616-13.532-7.812 25.318-14.616z" fill="#fff" stroke="#000" stroke-linejoin="bevel"/><path d="M136.505 46.395L80.131 78.94 50 61.545" stroke="#000" stroke-linejoin="bevel"/><path d="M136.505 49.413L80.131 81.958 50 64.563M66.632 36.95c-4.491 2.733-11.773 2.733-16.264 0-4.49-2.734-4.49-7.166 0-9.9 4.491-2.733 11.773-2.733 16.264 0 4.49 2.734 4.49 7.166 0 9.9z" stroke="#000" stroke-linejoin="bevel"/></svg>