<svg width="112" height="98" fill="none" xmlns="http://www.w3.org/2000/svg"><g clip-path="url(#clip0)"><path d="M83.242 57.477l19.623-3.682-45.886 26.489-12.943-.173 39.206-22.634z" fill="#C4C4C4"/><path d="M68.416 33.656l34.448 20.14-19.609 4.769-.53-9.54-14.84-7.552.531-7.817z" fill="#C4C4C4"/><path d="M70.536 42.136l12.386 7.022L44.135 71.55 5.35 49.158 8 47.502m-.795 4.833l-1.855 1.19 38.786 22.392 38.787-22.392-1.953-1.19M7.204 56.54l-1.855 1.19 38.786 22.39 38.787-22.392-1.953-1.19" stroke="#000" stroke-linejoin="bevel"/><path d="M36.618 17.227l31.191 17.489c1.739 9.796-3.703 19.565-15.006 26.94l-8.667 5.655L8.463 46.716c16.274-5.87 26.65-15.906 27.875-26.961l.28-2.528z" fill="#F2F2F2"/><path d="M44.133 66.732L6.483 44.996c17.161-7.118 27.553-18.658 27.553-31.13v-1.113L67.472 30.23c3.753 11.957-2.718 24.342-17.732 33.195l-5.607 3.307z" stroke="#000" stroke-linejoin="bevel"/><path d="M58.347 32.596l-19.97-11.13c-.708 3.544-2.2 6.995-4.41 10.274" stroke="#000" stroke-linejoin="bevel"/></g><defs><clipPath id="clip0"><path fill="#fff" d="M0 0h112v98H0z"/></clipPath></defs></svg>