<svg width="161" height="98" fill="none" xmlns="http://www.w3.org/2000/svg"><path d="M82 67.5l35.557-7.181L92 67.5 69.958 87.798 35 67.617l47-.117z" fill="#E5E5E5"/><path fill="#E5E5E5" d="M106.587 27l34.958 20.181-23.587 13.617L83 40.617z"/><path d="M69 88L20 60l12-21 50 28-13 21z" fill="#fff"/><path d="M69 88L20 60l12-21 50 28-13 21z" stroke="#000" stroke-linejoin="bevel"/><path d="M69.988 32L36 38.4 81.93 64 115 57.6 69.988 32z" fill="#fff"/><path d="M118 60L69 32l12-21 50 28-13 21z" fill="#fff"/><path d="M118 60L69 32l12-21 50 28-13 21z" stroke="#000" stroke-linejoin="bevel"/><path d="M115.597 57.571L126.5 40 82.064 15.428 72 33m-3-1l-37 7 50 28 36-7-49-28z" stroke="#000" stroke-linejoin="bevel"/><path d="M68 35.892l12 6.5-23.937 4.633L44 40.392l24-4.5z" fill="#F2F2F2" stroke="#000" stroke-linejoin="bevel"/><path d="M84 44.892l12 6.5-23.937 4.633L60 49.392l24-4.5zM80 33.48l.806-.923a6.75 6.75 0 001.547-3.171 6.752 6.752 0 011.604-3.238l.525-.585a9.578 9.578 0 001.182-1.637l1.067-1.864M83 35.48l.806-.923a6.75 6.75 0 001.547-3.171 6.752 6.752 0 011.604-3.238l.525-.585a9.578 9.578 0 001.182-1.637l1.067-1.864M112 52.48l.806-.923a6.756 6.756 0 001.547-3.171 6.744 6.744 0 011.604-3.238l.525-.585a9.598 9.598 0 001.182-1.637l1.067-1.864" stroke="#000" stroke-linejoin="bevel"/></svg>