<svg width="98" height="98" fill="none" xmlns="http://www.w3.org/2000/svg"><path fill="#E6E6E6" d="M12.977 75.629l42.891-24.761L79.674 64.61l-42.89 24.76z"/><path d="M9.128 68.775l29.263-16.893 23.805 13.743-29.262 16.893-15.78-7.807-8.026-5.936z" fill="#E6E6E6"/><path d="M48 95.5L90.5 71 71.18 60.418a3.56 3.56 0 01-.14-.08c-.472-.287-3.2-2.053-3.2-4.517l.001-48.787c0-5.078-2.894-5.217-4.341-4.652l-43 24.5 1.5.5c2.8.4 3.833 3.831 4 5.497v42.935c0 2.622.709 4.72 1.438 6.183.845 1.698 2.393 2.871 4.031 3.83L48 95.5z" fill="#F2F2F2"/><path d="M26 32.88v42.934c0 2.622.709 4.72 1.438 6.182.845 1.7 2.393 2.872 4.031 3.83L48 95.5 90.5 71 71.18 60.418a3.44 3.44 0 01-.14-.08c-.472-.287-3.2-2.053-3.2-4.517l.001-48.787M21 75.935V33m-1-5.966l43-24.5" stroke="#000" stroke-linejoin="bevel"/><path d="M26 32.822c0 1.976-1.567 2.777-3.5 1.789-1.933-.988-3.5-3.39-3.5-5.366 0-1.975 1.567-2.776 3.5-1.788 1.933.988 3.5 3.39 3.5 5.365z" stroke="#000" stroke-linejoin="bevel"/><path d="M16 73.67c0 1.976-1.567 2.776-3.5 1.788-1.933-.987-3.5-3.39-3.5-5.365s1.567-2.776 3.5-1.788c1.933.987 3.5 3.39 3.5 5.365z" fill="#E6E6E6"/><path d="M24 31.928c0 .988-.672 1.388-1.5.894-.828-.494-1.5-1.695-1.5-2.682 0-.988.672-1.388 1.5-.895.828.494 1.5 1.695 1.5 2.683zM68 7.534c0-2.09-.523-4.002-2-5-.996-.672-2-.75-3 0" stroke="#000" stroke-linejoin="bevel"/><path d="M63.877 49.195L53.411 34.882l-6.745 17.013-4.199-2.424L32 67.6l31.877-18.406z" fill="#fff"/><path d="M63.877 49.195L53.411 34.882l-6.745 17.013-4.199-2.424L32 67.6" stroke="#000"/><circle r="4.415" transform="matrix(.86601 -.50003 -.00003 1 37.89 45.159)" fill="#fff"/><path d="M37.991 49.658c-2.112 1.22-3.824.235-3.824-2.2s1.712-5.398 3.825-6.618" stroke="#000"/></svg>