<svg width="1440" height="429" fill="none" xmlns="http://www.w3.org/2000/svg"><mask id="a" style="mask-type:alpha" maskUnits="userSpaceOnUse" x="0" y="0" width="1466" height="429"><path fill="#fff" d="M0 0h1466v429H0z"/></mask><g mask="url(#a)"><g opacity=".3" filter="url(#filter0_f)"><path d="M1561.04 626.594c-62.34 62.342-576.543-60.234-589.069-240.439-.066-321.489 100.479-123.466 162.819-185.809 62.35-62.343 288.26 15.546 207.85 121.44 117.71 117.705 280.74 242.465 218.4 304.808z" fill="#E5D4FC"/></g><g opacity=".36" filter="url(#filter1_f)"><path d="M68.153 635.787C368.057 332.618 229.565 188.076 377.01 110.409c147.444-77.667 25.405 246.757 48.599 290.789 23.194 44.031 98.956 96.019-48.488 173.686-147.445 77.668-285.774 104.935-308.968 60.903z" fill="#D4EEFC"/></g></g><defs><filter id="filter0_f" x="816.864" y="-10" width="891.454" height="891.454" filterUnits="userSpaceOnUse" color-interpolation-filters="sRGB"><feFlood flood-opacity="0" result="BackgroundImageFix"/><feBlend in="SourceGraphic" in2="BackgroundImageFix" result="shape"/><feGaussianBlur stdDeviation="30" result="effect1_foregroundBlur"/></filter><filter id="filter1_f" x="-141.398" y="24.364" width="819.398" height="751.149" filterUnits="userSpaceOnUse" color-interpolation-filters="sRGB"><feFlood flood-opacity="0" result="BackgroundImageFix"/><feBlend in="SourceGraphic" in2="BackgroundImageFix" result="shape"/><feGaussianBlur stdDeviation="30" result="effect1_foregroundBlur"/></filter></defs></svg>